<?xml version="1.0" encoding="UTF-8" standalone="no"?>
<!DOCTYPE svg PUBLIC "-//W3C//DTD SVG 1.1//EN" "http://www.w3.org/Graphics/SVG/1.1/DTD/svg11.dtd">
<svg width="260" height="58" viewBox="0 0 260 58" version="1.1" xmlns="http://www.w3.org/2000/svg" xmlns:xlink="http://www.w3.org/1999/xlink" xml:space="preserve" xmlns:serif="http://www.serif.com/" style="fill-rule:evenodd;clip-rule:evenodd;stroke-linejoin:round;stroke-miterlimit:2;">
    <g transform="matrix(1,0,0,1,-124,0)">
        <path d="M139.7,41.9C128.5,41.9 123.7,38.1 123.7,28.5C123.7,19.7 128.9,15.6 139.9,15.6L151.9,15.6L151.9,21.1L140.5,21.1C134.2,21.1 132.1,23.2 132.1,28.5C132.1,34.2 134.2,36.4 140.7,36.4L152,36.4L152,41.9L139.7,41.9Z" style="fill:#ffffff;fill-rule:nonzero;"/>
        <path d="M190.3,15.6L190.3,41.9L182.4,41.9L182.4,31.1L167.7,31.1L167.7,41.9L159.7,41.9L159.7,15.6L167.7,15.6L167.7,25.3L182.4,25.3L182.4,15.6L190.3,15.6Z" style="fill:#ffffff;fill-rule:nonzero;"/>
        <path d="M195.8,41.9L207,15.6L215.9,15.6C217.5,15.6 218.3,16 218.9,17.4L229.8,41.9L221,41.9L212.2,21.8C211.9,21.1 211.4,21.1 211.2,21.8L202.8,41.9L195.8,41.9Z" style="fill:#ffffff;fill-rule:nonzero;"/>
        <path d="M258.4,40.7L242.3,26.8C242,26.5 241.6,26.6 241.6,27.1L241.6,41.8L235,41.8L235,15.6L239.2,15.6C240.9,15.6 241.7,15.8 242.8,16.7L259,30.6C259.4,30.9 259.8,30.7 259.8,30.2L259.8,15.6L266.4,15.6L266.4,40.8C266.4,41.5 266,41.9 265.3,41.9L261.6,41.9C260.3,41.9 259.4,41.6 258.4,40.7Z" style="fill:#ffffff;fill-rule:nonzero;"/>
        <path d="M304.7,41.9L289.8,41.9C278.2,41.9 273.5,38.1 273.5,28.4C273.5,19.5 278.8,15.6 290.1,15.6L305.8,15.6L305.8,21.1L290.6,21.1C284.1,21.1 282.1,22.1 282.1,28.4C282.1,35.4 284,36.3 290.8,36.3L297.9,36.3C298.2,36.3 298.4,36.1 298.4,35.8L298.4,31.8C298.4,31.5 298.2,31.3 297.9,31.3L292.3,31.3L292.3,26L304.8,26C305.5,26 305.9,26.4 305.9,27.1L305.9,40.8C305.8,41.5 305.4,41.9 304.7,41.9Z" style="fill:#ffffff;fill-rule:nonzero;"/>
        <path d="M311.5,41.9L322.7,15.6L331.6,15.6C333.2,15.6 334,16 334.6,17.4L345.5,41.9L336.8,41.9L328,21.8C327.7,21.1 327.2,21.1 327,21.8L318.6,41.9L311.5,41.9Z" style="fill:#ffffff;fill-rule:nonzero;"/>
        <path d="M374.1,40.7L358,26.8C357.7,26.5 357.3,26.6 357.3,27.1L357.3,41.8L350.7,41.8L350.7,15.6L354.9,15.6C356.6,15.6 357.4,15.8 358.5,16.7L374.6,30.6C375,30.9 375.4,30.7 375.4,30.2L375.4,15.6L382,15.6L382,40.8C382,41.5 381.6,41.9 380.9,41.9L377.2,41.9C375.9,41.9 375.1,41.6 374.1,40.7Z" style="fill:#ffffff;fill-rule:nonzero;"/>
    </g>
	
	<defs>
		<clipPath id="clip0_84_17">
		<rect width="260" height="57.4" fill="white"/>
		</clipPath>
	</defs>
	
</svg>
